<svg xmlns="http://www.w3.org/2000/svg" viewBox="0 0 99.21 38.28"><defs><style>.cls-1{fill:#1d1d1b;}.cls-2{fill:#e6e6e6;}.cls-3{fill:#ffec00;}.cls-4{fill:#fff;}</style></defs><title>logo_jobtv_RGB</title><path class="cls-1" d="M167.61 151.38a1.31 1.31 0 0 1 .41-.32 1.19 1.19 0 0 1 .52-.11 1 1 0 0 1 .82.37 1.32 1.32 0 0 1 1-.37 1.18 1.18 0 0 1 1.14 1.33v3.47h-1v-3.47c0-.29 0-.6-.4-.6-.57 0-.55.6-.55 1v3.08h-1v-3.47a.48.48 0 0 0-.4-.6c-.55 0-.56.6-.56 1v3.08h-1v-4.77h1v.35zM174.68 153.58a1.29 1.29 0 0 0 1.38 1.44.7.7 0 0 0 .74-.33h1c0 .89-1 1.14-1.75 1.14a2.16 2.16 0 0 1-2.3-2.41c0-1.4.69-2.48 2.18-2.48s2.05 1 2.05 2.35v.29h-3.26zm2.29-.81a1 1 0 0 0-1.1-1 1.13 1.13 0 0 0-1.19 1h2.32zM183.91 155.26a2 2 0 0 1-1.35.57 2.16 2.16 0 0 1-2.1-2.43c0-1.27.62-2.46 2-2.46a1.73 1.73 0 0 1 1.39.58v-2.64h1v6.86h-1v-.49zm0-1.93a1.27 1.27 0 1 0-2.48 0 1.3 1.3 0 1 0 2.48 0z" transform="translate(-166.53 -117.55)"/><path class="cls-1" d="M23.88 33.45v4.72h-1v-3.83h-1.52v-.89h2.49zm0-2.14v1.2h-1.34v-1.2h1.34z"/><path class="cls-1" d="M195 153.58a1.29 1.29 0 0 0 1.37 1.44.7.7 0 0 0 .74-.33h1c0 .89-1 1.14-1.75 1.14a2.16 2.16 0 0 1-2.3-2.41c0-1.4.69-2.48 2.18-2.48s2.05 1 2.05 2.35v.29h-3.29zm2.29-.81a1 1 0 0 0-1.1-1 1.13 1.13 0 0 0-1.19 1h2.29zM202.15 151.56a1.88 1.88 0 0 1 1.43-.61 1.7 1.7 0 0 1 1.8 1.84v3h-1v-3a.83.83 0 0 0-.93-1 1.31 1.31 0 0 0-1.35 1.54v2.46h-1v-4.79h1v.53z" transform="translate(-166.53 -117.55)"/><path class="cls-1" d="M43.32 36.87l.48-1.56h1l.49 1.67.34-3.49h1l-.57 4.72h-1.17l-.56-1.93-.56 1.93h-1.14l-.6-4.72h1z"/><path class="cls-1" d="M216.93 153.58a1.29 1.29 0 0 0 1.37 1.42.7.7 0 0 0 .74-.33h1c0 .89-1 1.14-1.75 1.14a2.16 2.16 0 0 1-2.3-2.41c0-1.4.69-2.48 2.17-2.48s2.05 1 2.05 2.35v.29h-3.26zm2.29-.81a1 1 0 0 0-1.1-1 1.13 1.13 0 0 0-1.19 1h2.29zM224.39 151.55a1.5 1.5 0 0 1 1.22-.6 1.38 1.38 0 0 1 1.43 1.43v.19h-1v-.14a.66.66 0 0 0-.59-.75c-.92 0-1.11.92-1.11 1.64v2.44h-1v-4.76h1v.52z" transform="translate(-166.53 -117.55)"/><path class="cls-1" d="M64.23 35.17l1.8-1.69h1.28l-2.25 2 2.46 2.67h-1.26l-2-2.2v2.2h-1v-6.86h1v3.82z"/><path class="cls-1" d="M239.11 152.21a.7.7 0 0 0-.8-.53.74.74 0 0 0-.89.57.6.6 0 0 0 .62.6c1 .19 2.25.32 2.25 1.59s-1.23 1.39-2.15 1.39-1.86-.29-1.86-1.34h1a.76.76 0 0 0 .91.6c.41 0 1.16-.11 1.16-.66s-.39-.56-.77-.62a6.65 6.65 0 0 1-1.4-.4 1.16 1.16 0 0 1-.7-1.13c0-1.1 1.12-1.35 1.86-1.35s1.77.37 1.77 1.12v.14h-1zM244.64 150.95h1.69v.81h-1.69v2.36c0 .44.08.9.63.9a2 2 0 0 0 1.05-.37v.89a2.22 2.22 0 0 1-1.07.28 1.53 1.53 0 0 1-1.58-1.81v-2.27h-1v-.81h1v-1.07l1-.25v1.33zM252 155.3a2 2 0 0 1-1.37.54 1.51 1.51 0 0 1-1.69-1.46c0-1.22 1.15-1.59 2.18-1.59h.88v-.17a.75.75 0 0 0-.88-.93c-.5 0-1 .08-1 .54h-1c.07-1 1.06-1.27 1.93-1.27 1.37 0 1.89.48 1.89 1.87v2.94h-1v-.47zm-1-1.78a.91.91 0 0 0-1.08.82.74.74 0 0 0 .82.76 1.27 1.27 0 0 0 1.27-1.42v-.16h-1zM257.64 150.95h1.69v.81h-1.69v2.36c0 .44.08.9.63.9a2 2 0 0 0 1.06-.37v.89a2.23 2.23 0 0 1-1.07.28 1.53 1.53 0 0 1-1.58-1.81v-2.27h-1v-.81h1v-1.07l1-.25v1.33zM264 150.95h1.69v.81h-1.69v2.36c0 .44.08.9.63.9a2 2 0 0 0 1.05-.37v.89a2.23 2.23 0 0 1-1.07.28 1.53 1.53 0 0 1-1.58-1.81v-2.27h-1v-.81h1v-1.07l1-.25v1.33z" transform="translate(-166.53 -117.55)"/><path class="cls-2" d="M59.83 0h39.39v30.1h-39.39z"/><path class="cls-3" d="M0 0h59.81v30.1h-59.81z"/><path class="cls-4" d="M177.46 126.15v14.17c0 4.4-1.68 6-6.38 6h-2.25v-2.82h2.17c1.14 0 2 .12 2.79-.63a3.77 3.77 0 0 0 .63-2.73v-11.14h-3.56v-2.82h6.65zm0-6.8v3.8h-4.25v-3.8h4.25z" transform="translate(-166.53 -117.55)"/><path class="cls-4" d="M33.28 16.03c0 4.43-2.67 7.85-7.28 7.85s-7.28-3.41-7.28-7.85 2.73-7.7 7.28-7.7 7.28 3.12 7.28 7.7zm-11.47 0c0 2.79 1 5.51 4.19 5.51s4.19-2.73 4.19-5.51-1.11-5.42-4.19-5.42-4.19 2.66-4.19 5.45z"/><path class="cls-4" d="M207.32 119.35h3.08v8.45h.09a5.61 5.61 0 0 1 4.46-1.92c4.61 0 6.5 4 6.5 8s-2.43 7.52-6.71 7.52a5.9 5.9 0 0 1-4.34-1.8v1.53h-3.08v-21.8zm3.08 14.32c0 2.52 1.08 5.18 4 5.18s4-2.61 4-5-.9-5.36-3.8-5.36-4.19 2.51-4.19 5.18zM236.44 125.88h5.36v2.58h-5.36v7.54c0 1.41.24 2.88 2 2.88a6.47 6.47 0 0 0 3.36-1.17v2.85a7.09 7.09 0 0 1-3.42.9c-3.62 0-5-2.4-5-5.75v-7.22h-3.08v-2.58h3.08v-3.41l3.09-.81v4.22z" transform="translate(-166.53 -117.55)"/><path class="cls-4" d="M88.23 21.06h.06l4.18-12.46h3.41l-5.45 15h-4.4l-5.45-15h3.41z"/></svg>